<?xml version="1.0" standalone="no"?>
<!DOCTYPE svg PUBLIC "-//W3C//DTD SVG 20010904//EN"
 "http://www.w3.org/TR/2001/REC-SVG-20010904/DTD/svg10.dtd">
<svg version="1.0" xmlns="http://www.w3.org/2000/svg"
 width="500.000000pt" height="500.000000pt" viewBox="0 0 500.000000 500.000000"
 preserveAspectRatio="xMidYMid meet">
<metadata>
Created by potrace 1.14, written by Peter Selinger 2001-2017
</metadata>
<g transform="translate(0.000000,500.000000) scale(0.100000,-0.100000)"
fill="#000000" stroke="none">
<path d="M2985 4660 l-7 -60 -156 0 c-87 0 -183 4 -214 9 -32 6 -119 13 -194
17 l-137 7 7 -42 c3 -23 7 -47 9 -54 1 -6 -21 -14 -53 -19 -305 -45 -559 -117
-750 -213 -76 -38 -98 -55 -144 -112 -46 -54 -71 -75 -146 -114 -172 -91 -408
-273 -505 -389 -72 -86 -113 -155 -186 -309 l-49 -104 170 5 c93 2 167 1 164
-4 -3 -4 -49 -37 -102 -72 -145 -95 -197 -159 -266 -323 -54 -127 -54 -119 3
-144 28 -12 51 -24 51 -28 0 -3 -12 -12 -28 -19 -15 -7 -42 -25 -61 -40 -33
-28 -33 -28 -47 -167 -7 -76 -12 -140 -10 -142 7 -7 122 55 170 92 27 20 49
35 50 33 1 -2 12 -28 23 -58 l20 -55 -34 -65 c-42 -81 -53 -142 -53 -286 l0
-113 50 6 50 6 0 -39 c0 -66 -39 -251 -72 -335 -37 -97 -92 -181 -178 -273
-39 -42 -57 -67 -45 -63 11 3 72 16 135 28 133 25 220 54 343 115 48 24 87 40
87 35 0 -6 -4 -12 -9 -15 -5 -3 -23 -43 -39 -89 -17 -45 -40 -104 -52 -132
-12 -27 -26 -61 -31 -74 l-10 -24 28 18 c16 10 37 25 48 35 11 9 44 33 74 54
l54 38 -8 -59 c-9 -75 -38 -162 -73 -218 -15 -24 -74 -94 -131 -155 l-104
-111 99 6 c241 16 480 92 629 199 27 20 53 36 56 36 4 0 10 -31 14 -68 4 -38
10 -75 15 -82 6 -10 31 8 97 73 49 48 94 87 99 87 16 0 132 -193 164 -275 18
-44 33 -82 35 -84 6 -5 76 106 108 170 15 30 34 80 43 112 l16 58 40 -45 c64
-74 193 -159 389 -259 165 -84 327 -176 401 -228 14 -11 29 -19 33 -19 8 0
-61 86 -112 141 l-34 36 69 5 c89 7 100 13 72 43 -12 12 -34 56 -49 96 l-27
74 -43 1 c-23 0 -49 -5 -57 -11 -13 -9 -11 -16 16 -50 36 -46 74 -115 63 -115
-21 0 -85 50 -150 116 -59 59 -82 92 -123 177 -46 97 -59 137 -44 137 4 0 22
-9 40 -21 l34 -21 1 114 c1 105 2 111 15 81 19 -45 97 -161 139 -208 24 -28
15 -10 -29 57 -77 118 -108 180 -100 201 3 8 -4 60 -16 114 -17 74 -23 139
-26 263 -2 115 0 147 5 105 40 -294 84 -496 128 -580 44 -85 154 -217 169
-202 3 3 -12 25 -33 49 -143 157 -196 314 -176 523 8 79 10 89 12 45 2 -69 32
-216 65 -312 27 -82 97 -233 120 -262 27 -33 28 -10 3 41 -65 128 -144 398
-167 569 -12 85 -11 93 8 131 28 54 68 100 102 118 l28 14 7 -66 c9 -85 40
-204 67 -257 25 -50 106 -170 168 -251 26 -33 50 -72 53 -86 20 -80 288 -279
451 -335 85 -29 84 -29 59 -2 -11 13 -29 36 -39 53 -16 26 -6 21 76 -36 101
-70 275 -164 325 -176 28 -6 24 0 -43 72 -158 169 -291 383 -336 539 -33 114
-34 140 -3 133 12 -4 56 -12 97 -19 97 -16 487 -18 514 -2 17 10 10 14 -50 27
-38 9 -105 21 -149 27 -87 12 -180 40 -235 70 -40 22 -38 22 75 20 l70 -1 -78
44 c-43 24 -105 67 -138 96 -131 115 -179 215 -179 369 0 78 3 89 31 133 16
26 51 66 77 90 188 169 298 295 355 405 16 30 16 30 74 22 32 -4 134 -11 226
-14 l169 -6 16 -37 c12 -28 16 -71 17 -185 l0 -149 68 74 c124 134 161 244
160 474 0 225 -30 352 -114 480 -56 86 -164 196 -272 277 -288 216 -267 195
-267 262 0 107 -60 278 -138 393 -67 98 -183 195 -356 298 -121 71 -203 104
-366 145 -69 17 -129 36 -134 41 -23 21 -34 7 -41 -51z m178 -105 c53 -9 117
-38 223 -101 79 -47 154 -75 154 -57 0 3 -11 19 -25 35 -14 17 -24 33 -21 36
13 13 110 -67 196 -161 75 -82 106 -125 143 -199 26 -53 47 -99 47 -104 0 -4
-22 17 -49 47 -55 61 -74 63 -34 3 25 -35 46 -83 103 -226 l19 -46 -42 24
c-23 13 -59 29 -79 34 -37 11 -38 12 -38 59 0 34 -6 56 -19 72 l-20 24 6 -72
6 -73 -28 0 c-15 0 -52 -7 -82 -16 -30 -9 -57 -13 -60 -10 -3 3 2 23 11 46 9
22 16 53 15 68 0 26 -1 25 -14 -9 -24 -65 -54 -117 -81 -138 -15 -12 -29 -19
-31 -17 -2 2 4 35 13 74 15 64 15 75 1 133 -25 102 -72 218 -83 206 -3 -3 4
-40 15 -83 36 -143 39 -305 7 -317 -10 -4 -12 22 -10 121 l3 127 -10 -103
c-13 -154 -33 -173 -80 -79 -20 37 -89 295 -89 328 0 9 -7 23 -17 30 -15 13
-15 12 -6 -6 16 -30 59 -315 48 -315 -3 0 -29 18 -58 40 -97 73 -252 130 -351
130 -41 0 -25 -10 83 -52 68 -27 97 -46 155 -99 39 -37 82 -85 95 -109 l23
-42 -57 7 c-51 7 -62 13 -108 58 -28 27 -53 45 -55 39 -2 -6 -9 -9 -15 -6 -7
2 -62 8 -124 13 -98 8 -116 12 -155 38 -98 66 -150 69 -277 18 -120 -48 -282
-86 -359 -84 -34 1 -65 -1 -69 -5 -3 -3 38 -6 92 -6 54 0 95 -3 92 -6 -4 -4
-95 -20 -204 -35 -108 -16 -259 -42 -335 -59 -77 -16 -144 -30 -151 -30 -7 0
11 20 38 44 l50 44 -58 -13 c-31 -7 -55 -9 -51 -4 3 5 0 9 -7 9 -23 0 29 45
86 75 94 49 89 63 -13 37 -81 -21 -97 -10 -39 27 39 25 33 26 -47 5 -133 -34
-285 -84 -359 -119 -44 -20 -81 -34 -83 -32 -3 3 14 21 38 41 24 19 65 54 91
76 56 47 148 110 194 133 17 9 46 37 64 61 34 48 111 107 196 150 62 31 272
102 328 111 l40 6 -40 -20 c-22 -11 -33 -20 -25 -21 19 0 189 48 173 49 -7 1
-13 5 -13 9 0 14 187 43 300 47 68 3 94 1 75 -4 -24 -7 -15 -9 45 -11 41 -1
93 -7 115 -14 l40 -12 -50 -13 c-184 -48 -231 -69 -158 -73 58 -2 62 -2 158
26 77 22 102 25 176 19 47 -3 89 -2 92 3 3 5 -14 8 -36 6 -27 -1 -71 8 -122
26 -103 37 -274 117 -294 137 -14 13 -11 15 29 15 25 0 115 -9 200 -21 117
-15 182 -18 265 -14 149 9 163 14 100 36 -44 15 -46 18 -20 18 51 1 155 -59
155 -89 0 -6 16 -28 36 -50 29 -32 39 -38 50 -29 25 21 15 56 -33 110 -82 94
-81 92 -58 86 11 -3 37 -8 58 -12z m-1146 -191 c-3 -3 -12 -4 -19 -1 -8 3 -5
6 6 6 11 1 17 -2 13 -5z m591 -453 c20 -11 52 -31 71 -45 31 -23 40 -25 99
-20 36 3 70 8 74 10 5 3 15 0 23 -6 8 -6 19 -9 25 -5 5 3 10 1 10 -4 0 -6 3
-10 8 -10 4 1 16 0 27 -1 15 -1 13 -4 -10 -11 -19 -5 -31 -5 -33 1 -2 6 -36 9
-75 9 -40 -1 -62 -4 -50 -6 12 -2 33 -16 45 -31 15 -17 31 -26 44 -24 14 2 29
-7 44 -25 23 -30 14 -41 -20 -23 -45 24 -30 -1 19 -31 28 -18 50 -33 49 -34
-2 -2 -34 2 -71 7 -83 11 -215 48 -291 82 -48 22 -55 22 -47 7 13 -23 79 -68
114 -76 15 -4 27 -12 27 -17 0 -7 -29 -9 -83 -6 -78 5 -134 21 -299 84 -50 20
-76 12 -44 -12 19 -14 19 -15 -17 -52 -35 -36 -49 -61 -27 -47 6 3 10 1 10 -5
0 -7 -6 -10 -14 -7 -8 3 -20 -1 -26 -9 -7 -8 -19 -14 -26 -14 -17 0 -246 -89
-258 -100 -5 -5 7 -5 25 -1 77 18 235 64 252 73 10 5 26 7 35 5 26 -6 -79 -51
-177 -76 -107 -26 -241 -39 -241 -22 0 7 53 65 118 130 147 148 260 225 365
247 40 8 96 23 125 34 28 11 54 20 57 20 3 1 19 7 37 15 44 19 62 18 106 -4z
m-1178 -65 c0 -10 -102 -68 -145 -83 -27 -9 -65 -27 -84 -40 -19 -13 -57 -34
-83 -46 -30 -13 -48 -28 -48 -39 0 -20 -46 -35 -110 -37 -33 -1 -41 1 -30 9
12 8 8 10 -15 11 -66 1 -68 11 -12 60 29 25 67 53 84 62 51 27 81 20 51 -12
-11 -11 -9 -12 7 -8 11 3 40 9 65 12 25 4 70 21 100 38 71 39 220 89 220 73z
m2435 -71 l57 -28 -5 -42 c-4 -24 -35 -98 -74 -171 -53 -99 -86 -147 -145
-212 -112 -120 -99 -137 17 -22 83 83 98 103 121 165 31 82 52 121 106 192 46
60 49 60 151 -9 175 -117 345 -281 410 -394 72 -124 89 -208 84 -409 -6 -198
-17 -228 -47 -130 -21 67 -79 167 -123 213 -48 50 -153 115 -169 106 -7 -5 -8
-2 -3 6 6 10 4 12 -9 7 -10 -4 -15 -3 -11 3 6 10 -10 15 -30 10 -5 -1 -19 -4
-30 -6 -11 -2 -31 -6 -44 -10 -17 -5 -22 -4 -17 4 4 7 2 12 -5 12 -6 0 -9 -8
-6 -20 3 -11 2 -18 -1 -16 -4 2 -13 -2 -20 -10 -8 -9 -9 -14 -2 -14 6 0 8 -4
5 -10 -3 -5 3 -10 14 -10 12 0 20 -3 18 -7 -4 -13 7 -16 31 -9 12 4 20 11 18
15 -4 5 27 6 54 2 13 -2 -63 -41 -81 -41 -11 0 -18 -3 -16 -7 3 -5 -11 -9 -31
-10 -26 -1 -32 1 -22 7 11 7 7 10 -17 10 -17 0 -35 5 -38 10 -3 6 -15 10 -26
10 -10 0 -19 5 -19 10 0 6 -9 10 -19 10 -11 0 -22 4 -25 9 -3 4 5 6 18 4 27
-5 44 22 20 31 -8 3 -12 1 -9 -4 3 -6 -1 -7 -9 -4 -9 3 -13 11 -9 17 4 6 0 8
-11 4 -10 -4 -19 -1 -22 7 -3 8 -13 17 -21 20 -14 6 -14 4 -2 -10 12 -15 12
-17 -1 -12 -8 3 -21 -2 -28 -11 -8 -9 -10 -10 -6 -2 5 10 1 11 -15 6 -11 -3
-29 -1 -38 5 -16 10 -16 11 3 7 18 -4 21 0 21 22 0 14 -2 21 -4 14 -2 -7 -11
-9 -18 -6 -8 3 -38 -2 -67 -10 -29 -9 -104 -18 -167 -22 -195 -10 -381 -46
-497 -96 -71 -30 -262 -76 -375 -91 -55 -6 -99 -16 -99 -20 0 -12 23 -10 218
13 152 18 190 26 267 57 l90 36 255 4 c292 4 366 -4 507 -53 121 -43 211 -47
297 -14 52 20 57 21 81 5 29 -19 58 -70 53 -94 -3 -15 -19 -17 -147 -13 -126
3 -149 6 -196 27 -31 15 -88 29 -136 34 -45 5 -85 14 -89 19 -11 19 -99 31
-325 42 -255 13 -224 17 -465 -57 -71 -22 -111 -27 -243 -31 -195 -7 -240 3
-235 51 3 31 4 31 193 92 105 34 259 83 344 109 85 27 207 68 270 93 64 24
134 50 156 59 41 15 68 33 48 33 -5 0 -13 26 -17 57 -4 31 -20 133 -37 227
l-31 170 23 19 c34 27 112 66 156 77 71 18 185 6 248 -25z m-1950 -148 c-80
-79 -153 -144 -162 -145 -41 -3 -440 55 -461 67 -9 5 3 20 40 49 65 50 83 57
211 82 56 11 134 27 172 35 124 26 244 46 328 53 9 1 -48 -62 -128 -141z
m1531 -93 c39 -188 57 -285 52 -290 -22 -22 -981 -341 -1015 -338 -7 1 -15 -7
-18 -17 -4 -11 -16 -19 -28 -19 -19 0 -19 2 -7 14 8 8 29 22 45 30 20 11 24
16 12 16 -20 0 -153 -65 -161 -79 -4 -5 -30 -15 -59 -21 -41 -10 -57 -19 -70
-41 -10 -18 -25 -29 -39 -30 -15 -1 -8 -6 22 -16 32 -10 101 -15 235 -16 105
-1 165 -4 135 -7 l-55 -5 70 -13 c39 -6 145 -13 237 -14 123 -2 169 -6 173
-15 3 -8 25 -13 59 -13 30 0 57 -4 60 -9 10 -16 -71 -77 -157 -118 -102 -50
-200 -128 -340 -271 -79 -82 -115 -127 -137 -174 -33 -70 -38 -62 -15 25 15
57 46 124 105 225 l31 52 -38 -20 c-37 -20 -93 -27 -93 -12 0 4 28 27 63 50
71 48 162 129 132 118 -19 -7 -89 -27 -293 -82 -69 -19 -112 -25 -163 -22 -58
2 -67 1 -52 -9 9 -7 31 -13 47 -13 l31 -1 -40 -20 c-101 -53 -184 -112 -225
-161 -24 -29 -50 -61 -59 -71 -11 -13 6 -9 63 17 44 20 94 45 111 56 28 17 36
18 57 7 39 -20 22 -46 -115 -187 -153 -156 -209 -239 -255 -379 -35 -104 -36
-109 -35 -258 1 -84 -2 -155 -6 -157 -15 -10 -39 19 -55 69 -21 61 -32 269
-19 342 10 50 9 53 -14 68 -13 9 -28 13 -33 10 -11 -7 -44 -78 -53 -117 -4
-15 -19 -44 -33 -65 -14 -21 -44 -74 -66 -118 -48 -94 -81 -145 -160 -242 -56
-69 -78 -87 -78 -62 0 17 221 473 237 489 12 11 14 12 8 1 -5 -9 -4 -12 3 -7
7 4 12 13 12 21 0 7 6 20 14 28 18 17 80 116 89 140 5 13 1 17 -18 17 -14 0
-25 3 -25 7 0 18 68 125 112 176 27 31 44 57 38 57 -10 0 -59 -23 -155 -73
-38 -20 -120 -104 -174 -180 -91 -126 -131 -243 -171 -502 -25 -165 -43 -238
-74 -308 l-23 -52 71 0 c48 0 81 6 103 18 18 9 38 17 45 17 7 0 41 20 74 45
75 56 128 147 126 220 0 25 5 51 12 58 7 7 21 48 30 92 19 85 49 165 63 165 4
0 8 -42 9 -93 1 -114 20 -176 109 -352 75 -148 112 -202 128 -186 19 19 20
179 2 291 -9 58 -19 178 -22 268 -5 136 -3 173 12 227 19 71 35 85 35 31 0
-62 31 -169 71 -248 21 -43 39 -85 39 -93 0 -18 16 -20 23 -2 2 6 -9 53 -24
102 -31 94 -50 245 -32 245 10 0 93 -162 93 -181 0 -22 17 -5 43 41 21 40 26
58 21 88 -8 53 11 145 45 216 l29 61 1 -67 c1 -82 24 -205 47 -250 22 -43 136
-238 181 -308 29 -45 34 -50 30 -26 -5 28 -4 28 14 9 14 -14 69 -140 69 -158
0 -2 -9 -5 -19 -8 -17 -4 -18 -12 -13 -72 l5 -67 -25 16 c-28 18 -106 100
-153 161 -39 49 -120 184 -139 229 -8 19 -23 36 -36 39 -22 6 -23 4 -17 -51 8
-79 65 -249 122 -362 26 -52 83 -148 127 -214 78 -118 78 -118 41 -96 -21 13
-56 34 -78 46 -55 32 -92 65 -180 164 -85 94 -149 199 -190 307 -15 40 -30 73
-34 73 -4 0 -1 -42 6 -92 23 -157 -1 -331 -65 -478 l-20 -45 -46 98 c-26 53
-64 124 -85 156 -21 32 -55 97 -76 144 l-38 85 -58 -88 c-68 -103 -134 -157
-273 -225 -109 -54 -181 -73 -301 -82 -77 -5 -88 -4 -79 8 6 8 31 40 57 72 60
76 86 148 101 284 7 62 10 113 8 113 -2 0 -13 -11 -24 -25 -11 -14 -24 -25
-29 -25 -5 0 -9 49 -9 111 0 71 -4 108 -10 104 -17 -11 -11 98 9 156 27 81 76
171 106 199 15 14 46 52 68 85 55 82 171 219 210 250 32 26 91 54 312 147 66
27 134 56 150 64 17 7 46 17 65 22 32 8 31 9 -22 9 -50 0 -72 7 -165 56 -59
30 -109 60 -111 65 -7 22 44 34 221 53 100 11 211 26 247 33 l65 14 -70 2
c-38 1 -115 4 -170 6 -113 4 -141 -2 -238 -57 -37 -21 -85 -43 -105 -48 -60
-15 -182 -22 -182 -11 0 11 144 85 292 150 l98 43 -23 20 c-51 46 -147 76
-147 46 0 -5 -18 -18 -39 -29 -22 -11 -46 -28 -53 -38 -8 -10 -93 -46 -204
-86 -190 -67 -192 -68 -250 -127 -33 -33 -58 -63 -56 -67 2 -4 -11 -11 -28
-16 -18 -5 -75 -30 -128 -56 -132 -64 -135 -45 -11 75 52 49 87 85 78 78 -8
-7 -26 -9 -39 -6 -18 5 -21 3 -15 -8 5 -8 4 -11 0 -6 -5 4 -18 -1 -29 -10 -12
-9 22 27 74 80 92 94 97 97 170 117 69 19 54 21 -30 4 -31 -6 -33 -5 -20 9 8
8 47 36 85 63 39 26 89 60 111 76 23 15 91 58 150 94 116 70 113 71 -36 17
-70 -25 -117 -36 -180 -39 l-85 -5 40 26 c69 45 221 113 348 154 129 42 249
60 416 62 l86 2 -60 8 c-33 5 -78 13 -101 17 -22 5 -49 5 -60 1 -10 -4 -48 -8
-84 -8 -125 -2 -343 -48 -507 -107 -54 -19 -202 -87 -329 -150 -127 -63 -236
-114 -242 -114 -19 0 -14 13 29 70 l41 55 -31 6 c-18 4 -35 9 -38 13 -12 12
66 114 128 167 59 51 182 139 194 139 9 0 5 -39 -5 -45 -6 -3 -10 -10 -10 -15
0 -5 25 5 56 23 54 31 55 32 34 49 -11 9 -26 18 -32 20 -17 6 21 63 81 122
l49 49 299 -6 c201 -4 339 -11 423 -23 69 -10 168 -17 220 -16 102 2 180 -5
180 -16 0 -4 -18 -8 -40 -8 -22 -1 -38 1 -35 5 7 13 -128 -10 -188 -31 -31
-11 -56 -23 -54 -25 3 -2 37 1 76 8 40 6 75 9 77 6 8 -7 -49 -18 -136 -28 -57
-6 -44 -6 55 -3 72 2 153 0 180 -5 l50 -9 -75 -1 c-88 -2 -79 -20 10 -21 30
-1 73 -5 95 -9 37 -8 35 -9 -30 -11 -72 -1 -68 -17 5 -20 l35 -2 -43 -15 c-24
-8 -41 -17 -39 -19 2 -3 16 0 31 6 15 5 37 10 49 10 36 -1 -131 -78 -213 -99
-64 -16 -70 -19 -45 -24 120 -23 375 -14 465 17 30 10 35 14 15 11 -110 -17
-241 -24 -315 -17 l-85 8 81 31 c107 42 183 53 329 48 201 -7 313 30 383 128
20 27 38 45 40 39 6 -20 -67 -99 -131 -141 -125 -81 -332 -160 -477 -183 -81
-12 -83 -13 -41 -18 l45 -5 -89 -42 c-109 -52 -98 -56 17 -7 45 19 110 42 143
49 133 31 230 70 310 125 22 15 67 42 100 59 134 72 316 190 489 319 82 61
176 149 176 165 0 31 14 -14 36 -119z m-2616 96 c0 -5 -7 -10 -16 -10 -8 0
-12 5 -9 10 3 6 10 10 16 10 5 0 9 -4 9 -10z m1534 -66 c-15 -16 -42 -53 -61
-81 -43 -68 -70 -85 -125 -81 l-43 3 50 12 c34 8 57 20 70 38 34 45 128 145
132 141 2 -2 -8 -17 -23 -32z m151 -61 c-26 -63 -5 -115 57 -143 50 -22 75
-15 106 31 23 33 25 61 7 101 -5 12 -2 20 10 25 41 15 69 -90 40 -151 -10 -20
-21 -34 -25 -31 -4 3 -13 -2 -20 -10 -8 -10 -17 -12 -24 -6 -8 7 -27 4 -57 -6
-44 -16 -46 -16 -92 7 -54 27 -97 71 -97 100 0 24 66 100 87 100 11 0 13 -5 8
-17z m135 -21 c0 -24 -8 -32 -26 -25 -22 8 -17 43 6 43 13 0 20 -7 20 -18z
m-323 -104 c-3 -8 -6 -5 -6 6 -1 11 2 17 5 13 3 -3 4 -12 1 -19z m60 -107 l37
-46 -33 30 c-34 31 -61 75 -60 97 0 7 5 2 10 -11 5 -14 26 -45 46 -70z m-82
-31 c23 -26 8 -26 -25 0 -18 14 -21 20 -9 20 9 0 24 -9 34 -20z m-1280 -402
c14 -6 25 -16 25 -22 0 -6 -43 -38 -96 -71 -53 -33 -132 -84 -175 -112 -43
-29 -83 -53 -89 -53 -14 0 80 126 132 177 91 88 142 109 203 81z m2132 -114
c-3 -3 -12 -4 -19 -1 -8 3 -5 6 6 6 11 1 17 -2 13 -5z m-59 -11 c-10 -2 -28
-2 -40 0 -13 2 -5 4 17 4 22 1 32 -1 23 -4z m1453 -164 c-9 -23 -10 -23 -10
-2 -1 12 2 30 6 40 6 15 8 15 11 2 1 -8 -2 -26 -7 -40z m-2869 -116 c11 -13 5
-22 -35 -58 -27 -23 -94 -67 -150 -98 -168 -90 -227 -127 -333 -208 -56 -42
-114 -85 -128 -94 -26 -18 -26 -16 10 46 46 79 105 167 160 240 30 39 61 65
106 90 163 88 333 126 370 82z m-882 -7 c0 -2 -8 -10 -17 -17 -16 -13 -17 -12
-4 4 13 16 21 21 21 13z m329 -112 c2 -2 -12 -16 -30 -31 -146 -120 -196 -201
-248 -403 -34 -129 -74 -345 -68 -363 6 -18 106 88 165 173 114 166 230 320
196 260 -4 -8 -27 -44 -50 -80 -23 -36 -63 -107 -89 -157 -88 -171 -235 -313
-364 -353 -35 -11 -65 -19 -67 -17 -2 1 19 48 46 102 63 130 88 207 106 330
32 218 56 270 197 424 124 135 133 141 171 129 17 -6 33 -12 35 -14z m2146 18
c-22 -19 -147 -93 -141 -83 4 6 37 28 74 51 65 39 86 49 67 32z m-2070 -40
c-50 -43 -126 -101 -150 -116 l-30 -17 30 26 c45 39 146 115 153 115 3 0 2 -4
-3 -8z m1081 -27 c5 -12 10 -12 32 2 19 11 14 3 -15 -25 -23 -23 -50 -42 -61
-42 -10 0 -35 -17 -57 -37 -42 -39 -56 -33 -31 16 9 16 16 39 16 49 0 11 10
23 23 27 12 5 31 11 42 15 32 12 45 11 51 -5z m159 -62 c-34 -80 -65 -347 -65
-559 0 -80 -1 -84 -19 -74 -31 16 -79 68 -107 115 -16 29 -31 77 -40 137 l-15
92 64 60 c46 43 74 80 95 127 17 36 41 77 52 92 24 30 46 36 35 10z m988 -457
c42 -51 104 -110 162 -155 l30 -24 -45 6 c-25 4 -74 9 -109 13 -63 7 -63 7
-83 50 -23 54 -48 179 -48 242 l1 47 25 -64 c13 -36 43 -87 67 -115z m-268
-16 c4 -6 11 -53 16 -106 23 -250 103 -448 292 -729 l41 -59 -65 49 c-99 75
-291 275 -323 337 l-28 53 66 -65 c37 -36 76 -74 86 -84 25 -25 25 -19 -1 41
-44 102 -101 271 -115 341 -14 76 -19 214 -7 225 10 10 31 8 38 -3z m-704
-227 c34 -143 33 -134 15 -127 -26 10 -43 77 -49 184 -3 58 -3 96 0 85 2 -11
18 -75 34 -142z m946 -74 c39 -22 40 -25 62 -123 14 -61 46 -152 82 -234 33
-74 58 -136 56 -139 -6 -5 -134 140 -180 204 -67 93 -118 222 -142 358 l-7 39
45 -41 c24 -22 62 -51 84 -64z m239 57 c3 -9 12 -12 21 -9 11 4 14 2 9 -5 -4
-7 -2 -12 5 -12 7 0 10 -2 7 -5 -7 -8 -98 26 -98 36 0 15 50 10 56 -5z m94
-36 c13 -8 13 -10 -2 -10 -9 0 -20 5 -23 10 -8 13 5 13 25 0z m-1675 -476 c9
-15 12 -23 6 -20 -11 7 -35 46 -28 46 3 0 12 -12 22 -26z"/>
<path d="M2780 4251 c14 -5 65 -21 114 -37 65 -20 106 -40 150 -74 95 -73 128
-89 67 -33 -38 35 -50 52 -40 55 23 8 -14 43 -73 68 -37 16 -78 23 -147 26
-63 3 -88 1 -71 -5z"/>
<path d="M2151 4231 c-8 -5 -21 -7 -29 -3 -11 4 -13 1 -7 -8 7 -11 -7 -12 -71
-6 -43 3 -90 9 -104 11 -14 3 -10 0 10 -8 l35 -14 -40 -8 c-22 -4 -34 -10 -26
-13 8 -2 -26 -15 -75 -27 -49 -12 -125 -37 -169 -54 -64 -25 -96 -31 -160 -32
l-80 -1 60 -13 c33 -7 74 -20 92 -29 30 -16 35 -15 130 10 54 14 127 35 163
46 36 11 127 24 203 30 117 10 140 9 148 -3 7 -11 9 -11 9 3 0 13 -15 17 -87
23 -49 3 -110 9 -138 12 l-50 7 75 12 c76 13 270 16 270 5 0 -14 -51 -81 -63
-83 -51 -6 -226 -57 -241 -69 -19 -17 44 -20 101 -5 115 30 116 25 12 -74 -65
-63 -84 -86 -62 -76 17 9 69 51 115 94 94 88 239 198 313 236 l50 27 -47 -7
c-25 -3 -77 -1 -115 4 -110 17 -207 23 -222 13z"/>
<path d="M3496 4133 c4 -16 15 -61 25 -102 11 -41 19 -85 19 -98 0 -14 4 -21
10 -18 20 12 11 113 -17 180 -27 66 -49 88 -37 38z"/>
<path d="M2801 4139 c-42 -16 -15 -21 31 -5 31 11 36 15 18 15 -14 0 -36 -5
-49 -10z"/>
<path d="M1815 3926 c-71 -23 -174 -72 -210 -100 -26 -20 -11 -20 23 -1 15 9
88 40 162 70 138 56 150 71 25 31z"/>
<path d="M2825 3750 c10 -11 20 -20 23 -20 3 0 -3 9 -13 20 -10 11 -20 20 -23
20 -3 0 3 -9 13 -20z"/>
<path d="M3520 3459 c0 -8 26 -15 91 -24 31 -5 57 -2 82 9 20 8 37 17 37 18 0
2 -47 4 -105 4 -58 0 -105 -3 -105 -7z"/>
<path d="M3329 3104 c-57 -29 -96 -53 -87 -53 9 -1 54 8 100 19 95 23 145 25
150 8 3 -7 6 -8 9 -3 2 6 -12 26 -31 46 l-36 36 -105 -53z"/>
<path d="M3577 3125 c-10 -21 -16 -39 -14 -42 8 -7 38 48 35 64 -2 10 -10 2
-21 -22z"/>
<path d="M3928 3113 c7 -3 16 -2 19 1 4 3 -2 6 -13 5 -11 0 -14 -3 -6 -6z"/>
<path d="M3870 3106 c0 -2 9 -6 20 -9 11 -3 18 -1 14 4 -5 9 -34 13 -34 5z"/>
<path d="M4150 3090 c0 -5 5 -10 11 -10 5 0 7 5 4 10 -3 6 -8 10 -11 10 -2 0
-4 -4 -4 -10z"/>
<path d="M3967 2994 c-11 -12 3 -24 29 -24 13 0 24 -5 24 -12 0 -6 3 -9 6 -6
3 4 1 16 -6 27 -10 20 -40 28 -53 15z"/>
<path d="M4050 2960 c0 -5 5 -10 11 -10 5 0 7 5 4 10 -3 6 -8 10 -11 10 -2 0
-4 -4 -4 -10z"/>
<path d="M2528 2863 c7 -3 16 -2 19 1 4 3 -2 6 -13 5 -11 0 -14 -3 -6 -6z"/>
<path d="M3400 3486 c0 -2 7 -7 16 -10 8 -3 12 -2 9 4 -6 10 -25 14 -25 6z"/>
<path d="M2200 2870 l-25 -8 25 -1 c14 0 32 4 40 9 13 9 13 10 0 9 -8 -1 -26
-5 -40 -9z"/>
<path d="M2050 2740 c0 -11 7 -18 94 -85 63 -48 122 -70 159 -60 12 4 -8 -9
-45 -28 -37 -19 -91 -55 -120 -81 -37 -32 -73 -53 -120 -68 -83 -27 -82 -36 1
-12 42 11 80 32 122 66 76 61 160 104 253 129 l71 19 -70 -3 c-82 -5 -136 10
-212 59 -75 48 -133 76 -133 64z"/>
<path d="M1729 2093 l-24 -28 28 24 c25 23 32 31 24 31 -2 0 -14 -12 -28 -27z"/>
<path d="M2912 856 c-14 -56 -26 -57 -90 -13 -26 18 -54 37 -62 42 -28 17 61
-84 143 -161 72 -68 79 -78 61 -83 -20 -6 -20 -8 18 -58 46 -62 75 -83 120
-87 19 -2 71 -22 116 -45 45 -22 83 -41 86 -41 9 0 -14 78 -39 133 l-26 57
-39 -41 c-32 -34 -42 -39 -58 -30 -29 16 -38 29 -116 187 -41 82 -81 157 -88
167 -12 16 -15 14 -26 -27z"/>
<path d="M3266 784 c-12 -32 -4 -50 37 -79 23 -17 59 -55 80 -85 l39 -55 -8
50 c-4 28 -12 70 -18 95 -10 41 -14 45 -55 57 -24 7 -49 17 -56 23 -9 8 -14 6
-19 -6z"/>
</g>
</svg>
